<svg width="20" height="20" viewBox="0 0 20 20" fill="none" xmlns="http://www.w3.org/2000/svg">
<g clip-path="url(#clip0_542_2402)">
<mask id="mask0_542_2402" style="mask-type:luminance" maskUnits="userSpaceOnUse" x="0" y="0" width="20" height="20">
<path d="M20 0H0V20H20V0Z" fill="white"/>
</mask>
<g mask="url(#mask0_542_2402)">
<path d="M19.9996 8.88892H17.7773V11.1111H19.9996V8.88892Z" fill="#E3E2E1"/>
<path d="M8.88824 15.5555H6.66602V17.7778H8.88824V15.5555Z" fill="#E3E2E1"/>
<path d="M6.66753 15.5555H4.44531V17.7778H6.66753V15.5555Z" fill="#E3E2E1"/>
<path d="M17.7769 11.1111H15.5547V13.3333H17.7769V11.1111Z" fill="#E3E2E1"/>
<path d="M15.5562 11.1111H13.334V13.3333H15.5562V11.1111Z" fill="#E3E2E1"/>
<path d="M13.3336 13.3333H11.1113V15.5555H13.3336V13.3333Z" fill="#E3E2E1"/>
<path d="M11.1109 13.3333H8.88867V15.5555H11.1109V13.3333Z" fill="#E3E2E1"/>
<path d="M4.44488 17.7778H2.22266V20H4.44488V17.7778Z" fill="#E3E2E1"/>
<path d="M2.22222 17.7778H0V20H2.22222V17.7778Z" fill="#E3E2E1"/>
<path d="M4.44488 0H2.22266V2.22222H4.44488V0Z" fill="#E3E2E1"/>
<path d="M2.22222 0H0V2.22222H2.22222V0Z" fill="#E3E2E1"/>
<path d="M2.22222 2.22223H0V4.44445H2.22222V2.22223Z" fill="#E3E2E1"/>
<path d="M2.22222 4.44446H0V6.66668H2.22222V4.44446Z" fill="#E3E2E1"/>
<path d="M2.22222 6.66669H0V8.88891H2.22222V6.66669Z" fill="#E3E2E1"/>
<path d="M2.22222 8.88892H0V11.1111H2.22222V8.88892Z" fill="#E3E2E1"/>
<path d="M2.22222 11.1111H0V13.3333H2.22222V11.1111Z" fill="#E3E2E1"/>
<path d="M2.22222 13.3333H0V15.5555H2.22222V13.3333Z" fill="#E3E2E1"/>
<path d="M2.22222 15.5555H0V17.7778H2.22222V15.5555Z" fill="#E3E2E1"/>
<path d="M4.44488 2.22223H2.22266V4.44445H4.44488V2.22223Z" fill="#E3E2E1"/>
<path d="M4.44488 4.44446H2.22266V6.66668H4.44488V4.44446Z" fill="#E3E2E1"/>
<path d="M4.44488 6.66669H2.22266V8.88891H4.44488V6.66669Z" fill="#E3E2E1"/>
<path d="M4.44488 8.88892H2.22266V11.1111H4.44488V8.88892Z" fill="#E3E2E1"/>
<path d="M4.44488 11.1111H2.22266V13.3333H4.44488V11.1111Z" fill="#E3E2E1"/>
<path d="M4.44488 13.3333H2.22266V15.5555H4.44488V13.3333Z" fill="#E3E2E1"/>
<path d="M6.66753 4.44446H4.44531V6.66668H6.66753V4.44446Z" fill="#E3E2E1"/>
<path d="M6.66753 6.66669H4.44531V8.88891H6.66753V6.66669Z" fill="#E3E2E1"/>
<path d="M6.66753 8.88892H4.44531V11.1111H6.66753V8.88892Z" fill="#E3E2E1"/>
<path d="M6.66753 11.1111H4.44531V13.3333H6.66753V11.1111Z" fill="#E3E2E1"/>
<path d="M6.66753 13.3333H4.44531V15.5555H6.66753V13.3333Z" fill="#E3E2E1"/>
<path d="M8.88824 4.44446H6.66602V6.66668H8.88824V4.44446Z" fill="#E3E2E1"/>
<path d="M8.88824 6.66669H6.66602V8.88891H8.88824V6.66669Z" fill="#E3E2E1"/>
<path d="M8.88824 8.88892H6.66602V11.1111H8.88824V8.88892Z" fill="#E3E2E1"/>
<path d="M8.88824 11.1111H6.66602V13.3333H8.88824V11.1111Z" fill="#E3E2E1"/>
<path d="M11.1109 6.66669H8.88867V8.88891H11.1109V6.66669Z" fill="#E3E2E1"/>
<path d="M11.1109 8.88892H8.88867V11.1111H11.1109V8.88892Z" fill="#E3E2E1"/>
<path d="M11.1109 11.1111H8.88867V13.3333H11.1109V11.1111Z" fill="#E3E2E1"/>
<path d="M13.3336 6.66669H11.1113V8.88891H13.3336V6.66669Z" fill="#E3E2E1"/>
<path d="M13.3336 8.88892H11.1113V11.1111H13.3336V8.88892Z" fill="#E3E2E1"/>
<path d="M15.5562 8.88892H13.334V11.1111H15.5562V8.88892Z" fill="#E3E2E1"/>
<path d="M17.7769 8.88892H15.5547V11.1111H17.7769V8.88892Z" fill="#E3E2E1"/>
<path d="M13.3336 11.1111H11.1113V13.3333H13.3336V11.1111Z" fill="#E3E2E1"/>
<path d="M8.88824 13.3333H6.66602V15.5555H8.88824V13.3333Z" fill="#E3E2E1"/>
<path d="M4.44488 15.5555H2.22266V17.7778H4.44488V15.5555Z" fill="#E3E2E1"/>
<path d="M8.88824 2.22223H6.66602V4.44445H8.88824V2.22223Z" fill="#E3E2E1"/>
<path d="M6.66753 2.22223H4.44531V4.44445H6.66753V2.22223Z" fill="#E3E2E1"/>
<path d="M13.3336 4.44446H11.1113V6.66668H13.3336V4.44446Z" fill="#E3E2E1"/>
<path d="M11.1109 4.44446H8.88867V6.66668H11.1109V4.44446Z" fill="#E3E2E1"/>
<path d="M17.7769 6.66669H15.5547V8.88891H17.7769V6.66669Z" fill="#E3E2E1"/>
<path d="M15.5562 6.66669H13.334V8.88891H15.5562V6.66669Z" fill="#E3E2E1"/>
</g>
</g>
<defs>
<clipPath id="clip0_542_2402">
<rect width="20" height="20" fill="white"/>
</clipPath>
</defs>
</svg>
