<svg width="46" height="46" viewBox="0 0 46 46" fill="none" xmlns="http://www.w3.org/2000/svg">
<g clip-path="url(#clip0_602_830)">
<mask id="mask0_602_830" style="mask-type:luminance" maskUnits="userSpaceOnUse" x="0" y="0" width="46" height="46">
<path d="M46 0H0V46H46V0Z" fill="white"/>
</mask>
<g mask="url(#mask0_602_830)">
<path d="M3.83333 19.1666H0V23H3.83333V19.1666Z" fill="#1A1A1A"/>
<path d="M3.83333 23H0V26.8333H3.83333V23Z" fill="#1A1A1A"/>
<path d="M3.83333 26.8334H0V30.6667H3.83333V26.8334Z" fill="#1A1A1A"/>
<path d="M3.83333 15.3334H0V19.1667H3.83333V15.3334Z" fill="#1A1A1A"/>
<path d="M7.66732 11.5H3.83398V15.3333H7.66732V11.5Z" fill="#1A1A1A"/>
<path d="M7.66732 7.66663H3.83398V11.5H7.66732V7.66663Z" fill="#1A1A1A"/>
<path d="M11.4993 3.83337H7.66602V7.66671H11.4993V3.83337Z" fill="#1A1A1A"/>
<path d="M15.3333 3.83337H11.5V7.66671H15.3333V3.83337Z" fill="#1A1A1A"/>
<path d="M19.1673 0H15.334V3.83333H19.1673V0Z" fill="#1A1A1A"/>
<path d="M22.9993 0H19.166V3.83333H22.9993V0Z" fill="#1A1A1A"/>
<path d="M19.1673 3.83337H15.334V7.66671H19.1673V3.83337Z" fill="#1A1A1A"/>
<path d="M22.9993 3.83337H19.166V7.66671H22.9993V3.83337Z" fill="#1A1A1A"/>
<path d="M15.3333 7.66663H11.5V11.5H15.3333V7.66663Z" fill="#1A1A1A"/>
<path d="M19.1673 7.66663H15.334V11.5H19.1673V7.66663Z" fill="#1A1A1A"/>
<path d="M11.4993 11.5H7.66602V15.3333H11.4993V11.5Z" fill="#1A1A1A"/>
<path d="M11.4993 7.66663H7.66602V11.5H11.4993V7.66663Z" fill="#1A1A1A"/>
<path d="M15.3333 11.5H11.5V15.3333H15.3333V11.5Z" fill="#1A1A1A"/>
<path d="M7.66732 15.3334H3.83398V19.1667H7.66732V15.3334Z" fill="#1A1A1A"/>
<path d="M11.4993 15.3334H7.66602V19.1667H11.4993V15.3334Z" fill="#1A1A1A"/>
<path d="M15.3333 15.3334H11.5V19.1667H15.3333V15.3334Z" fill="#1A1A1A"/>
<path d="M7.66732 19.1666H3.83398V23H7.66732V19.1666Z" fill="#1A1A1A"/>
<path d="M11.4993 19.1666H7.66602V23H11.4993V19.1666Z" fill="#1A1A1A"/>
<path d="M15.3333 19.1666H11.5V23H15.3333V19.1666Z" fill="#1A1A1A"/>
<path d="M7.66732 23H3.83398V26.8333H7.66732V23Z" fill="#1A1A1A"/>
<path d="M11.4993 23H7.66602V26.8333H11.4993V23Z" fill="#1A1A1A"/>
<path d="M15.3333 23H11.5V26.8333H15.3333V23Z" fill="#1A1A1A"/>
<path d="M26.8333 0H23V3.83333H26.8333V0Z" fill="#1A1A1A"/>
<path d="M30.6673 0H26.834V3.83333H30.6673V0Z" fill="#1A1A1A"/>
<path d="M26.8333 3.83337H23V7.66671H26.8333V3.83337Z" fill="#1A1A1A"/>
<path d="M30.6673 3.83337H26.834V7.66671H30.6673V3.83337Z" fill="#1A1A1A"/>
<path d="M34.4993 3.83337H30.666V7.66671H34.4993V3.83337Z" fill="#1A1A1A"/>
<path d="M22.9993 7.66663H19.166V11.5H22.9993V7.66663Z" fill="#1A1A1A"/>
<path d="M19.1673 11.5H15.334V15.3333H19.1673V11.5Z" fill="#1A1A1A"/>
<path d="M19.1673 15.3334H15.334V19.1667H19.1673V15.3334Z" fill="#1A1A1A"/>
<path d="M19.1673 19.1666H15.334V23H19.1673V19.1666Z" fill="#1A1A1A"/>
<path d="M19.1673 23H15.334V26.8333H19.1673V23Z" fill="#1A1A1A"/>
<path d="M7.66732 26.8334H3.83398V30.6667H7.66732V26.8334Z" fill="#1A1A1A"/>
<path d="M11.4993 26.8334H7.66602V30.6667H11.4993V26.8334Z" fill="#1A1A1A"/>
<path d="M15.3333 26.8334H11.5V30.6667H15.3333V26.8334Z" fill="#1A1A1A"/>
<path d="M19.1673 26.8334H15.334V30.6667H19.1673V26.8334Z" fill="#1A1A1A"/>
<path d="M11.4993 30.6666H7.66602V34.5H11.4993V30.6666Z" fill="#1A1A1A"/>
<path d="M15.3333 30.6666H11.5V34.5H15.3333V30.6666Z" fill="#1A1A1A"/>
<path d="M19.1673 30.6666H15.334V34.5H19.1673V30.6666Z" fill="#1A1A1A"/>
<path d="M22.9993 30.6666H19.166V34.5H22.9993V30.6666Z" fill="#1A1A1A"/>
<path d="M26.8333 30.6666H23V34.5H26.8333V30.6666Z" fill="#1A1A1A"/>
<path d="M30.6673 30.6666H26.834V34.5H30.6673V30.6666Z" fill="#1A1A1A"/>
<path d="M34.4993 30.6666H30.666V34.5H34.4993V30.6666Z" fill="#1A1A1A"/>
<path d="M38.3333 30.6666H34.5V34.5H38.3333V30.6666Z" fill="#1A1A1A"/>
<path d="M11.4993 34.5H7.66602V38.3333H11.4993V34.5Z" fill="#1A1A1A"/>
<path d="M15.3333 34.5H11.5V38.3333H15.3333V34.5Z" fill="#1A1A1A"/>
<path d="M19.1673 34.5H15.334V38.3333H19.1673V34.5Z" fill="#1A1A1A"/>
<path d="M22.9993 34.5H19.166V38.3333H22.9993V34.5Z" fill="#1A1A1A"/>
<path d="M26.8333 34.5H23V38.3333H26.8333V34.5Z" fill="#1A1A1A"/>
<path d="M30.6673 34.5H26.834V38.3333H30.6673V34.5Z" fill="#1A1A1A"/>
<path d="M19.1673 38.3334H15.334V42.1667H19.1673V38.3334Z" fill="#1A1A1A"/>
<path d="M22.9993 38.3334H19.166V42.1667H22.9993V38.3334Z" fill="#1A1A1A"/>
<path d="M26.8333 38.3334H23V42.1667H26.8333V38.3334Z" fill="#1A1A1A"/>
<path d="M30.6673 38.3334H26.834V42.1667H30.6673V38.3334Z" fill="#1A1A1A"/>
<path d="M34.4993 34.5H30.666V38.3333H34.4993V34.5Z" fill="#1A1A1A"/>
<path d="M38.3333 34.5H34.5V38.3333H38.3333V34.5Z" fill="#1A1A1A"/>
<path d="M22.9993 23H19.166V26.8333H22.9993V23Z" fill="#1A1A1A"/>
<path d="M22.9993 26.8334H19.166V30.6667H22.9993V26.8334Z" fill="#1A1A1A"/>
<path d="M26.8333 26.8334H23V30.6667H26.8333V26.8334Z" fill="#1A1A1A"/>
<path d="M30.6673 26.8334H26.834V30.6667H30.6673V26.8334Z" fill="#1A1A1A"/>
<path d="M34.4993 26.8334H30.666V30.6667H34.4993V26.8334Z" fill="#1A1A1A"/>
<path d="M38.3333 23H34.5V26.8333H38.3333V23Z" fill="#1A1A1A"/>
<path d="M38.3333 26.8334H34.5V30.6667H38.3333V26.8334Z" fill="#1A1A1A"/>
<path d="M42.1673 19.1666H38.334V23H42.1673V19.1666Z" fill="#1A1A1A"/>
<path d="M42.1673 15.3334H38.334V19.1667H42.1673V15.3334Z" fill="#1A1A1A"/>
<path d="M42.1673 11.5H38.334V15.3333H42.1673V11.5Z" fill="#1A1A1A"/>
<path d="M45.9993 15.3334H42.166V19.1667H45.9993V15.3334Z" fill="#1A1A1A"/>
<path d="M45.9993 19.1666H42.166V23H45.9993V19.1666Z" fill="#1A1A1A"/>
<path d="M45.9993 23H42.166V26.8333H45.9993V23Z" fill="#1A1A1A"/>
<path d="M45.9993 26.8334H42.166V30.6667H45.9993V26.8334Z" fill="#1A1A1A"/>
<path d="M42.1673 23H38.334V26.8333H42.1673V23Z" fill="#1A1A1A"/>
<path d="M42.1673 26.8334H38.334V30.6667H42.1673V26.8334Z" fill="#1A1A1A"/>
<path d="M42.1673 30.6666H38.334V34.5H42.1673V30.6666Z" fill="#1A1A1A"/>
<path d="M42.1673 34.5H38.334V38.3333H42.1673V34.5Z" fill="#1A1A1A"/>
<path d="M38.3333 38.3334H34.5V42.1667H38.3333V38.3334Z" fill="#1A1A1A"/>
<path d="M34.4993 38.3334H30.666V42.1667H34.4993V38.3334Z" fill="#1A1A1A"/>
<path d="M30.6673 42.1666H26.834V46H30.6673V42.1666Z" fill="#1A1A1A"/>
<path d="M26.8333 42.1666H23V46H26.8333V42.1666Z" fill="#1A1A1A"/>
<path d="M22.9993 42.1666H19.166V46H22.9993V42.1666Z" fill="#1A1A1A"/>
<path d="M19.1673 42.1666H15.334V46H19.1673V42.1666Z" fill="#1A1A1A"/>
<path d="M15.3333 38.3334H11.5V42.1667H15.3333V38.3334Z" fill="#1A1A1A"/>
<path d="M11.4993 38.3334H7.66602V42.1667H11.4993V38.3334Z" fill="#1A1A1A"/>
<path d="M7.66732 34.5H3.83398V38.3333H7.66732V34.5Z" fill="#1A1A1A"/>
<path d="M7.66732 30.6666H3.83398V34.5H7.66732V30.6666Z" fill="#1A1A1A"/>
</g>
</g>
<defs>
<clipPath id="clip0_602_830">
<rect width="46" height="46" fill="white"/>
</clipPath>
</defs>
</svg>
