<svg width="550" height="550" viewBox="0 0 550 550" fill="none" xmlns="http://www.w3.org/2000/svg">
<rect x="224" y="444" width="47" height="47" fill="#E3E2E1"/>
<rect x="279" y="444" width="47" height="47" fill="#E3E2E1"/>
<rect x="334" y="444" width="47" height="47" fill="#E3E2E1"/>
<rect x="59" y="444" width="47" height="47" fill="#E3E2E1"/>
<rect x="59" y="499" width="47" height="47" fill="#E3E2E1"/>
<rect x="59" y="334" width="47" height="47" fill="#E3E2E1"/>
<rect x="59" y="389" width="47" height="47" fill="#E3E2E1"/>
<rect x="4" y="334" width="47" height="47" fill="#E3E2E1"/>
<rect x="4" y="389" width="47" height="47" fill="#E3E2E1"/>
<rect x="4" y="169" width="47" height="47" fill="#E3E2E1"/>
<rect x="4" y="59" width="47" height="47" fill="#E3E2E1"/>
<rect x="4" y="224" width="47" height="47" fill="#E3E2E1"/>
<rect x="59" y="224" width="47" height="47" fill="#E3E2E1"/>
<rect x="59" y="279" width="47" height="47" fill="#E3E2E1"/>
<rect x="59" y="114" width="47" height="47" fill="#E3E2E1"/>
<rect x="59" y="169" width="47" height="47" fill="#E3E2E1"/>
<rect x="114" y="444" width="47" height="47" fill="#E3E2E1"/>
<rect x="169" y="444" width="47" height="47" fill="#E3E2E1"/>
<rect x="224" y="499" width="47" height="47" fill="#E3E2E1"/>
<rect x="279" y="499" width="47" height="47" fill="#E3E2E1"/>
<rect x="389" y="444" width="47" height="47" fill="#E3E2E1"/>
<rect x="224" y="389" width="47" height="47" fill="#E3E2E1"/>
<rect x="279" y="389" width="47" height="47" fill="#E3E2E1"/>
<rect x="334" y="389" width="47" height="47" fill="#E3E2E1"/>
<rect x="114" y="389" width="47" height="47" fill="#E3E2E1"/>
<rect x="169" y="389" width="47" height="47" fill="#E3E2E1"/>
<rect x="389" y="389" width="47" height="47" fill="#E3E2E1"/>
<rect x="224" y="334" width="47" height="47" fill="#E3E2E1"/>
<rect x="279" y="334" width="47" height="47" fill="#E3E2E1"/>
<rect x="334" y="334" width="47" height="47" fill="#E3E2E1"/>
<rect x="114" y="334" width="47" height="47" fill="#E3E2E1"/>
<rect x="169" y="334" width="47" height="47" fill="#E3E2E1"/>
<rect x="389" y="334" width="47" height="47" fill="#E3E2E1"/>
<rect x="224" y="279" width="47" height="47" fill="#E3E2E1"/>
<rect x="279" y="279" width="47" height="47" fill="#E3E2E1"/>
<rect x="334" y="279" width="47" height="47" fill="#E3E2E1"/>
<rect x="114" y="279" width="47" height="47" fill="#E3E2E1"/>
<rect x="169" y="279" width="47" height="47" fill="#E3E2E1"/>
<rect x="389" y="279" width="47" height="47" fill="#E3E2E1"/>
<rect x="224" y="224" width="47" height="47" fill="#E3E2E1"/>
<rect x="279" y="224" width="47" height="47" fill="#E3E2E1"/>
<rect x="334" y="224" width="47" height="47" fill="#E3E2E1"/>
<rect x="114" y="224" width="47" height="47" fill="#E3E2E1"/>
<rect x="169" y="224" width="47" height="47" fill="#E3E2E1"/>
<rect x="389" y="224" width="47" height="47" fill="#E3E2E1"/>
<rect x="224" y="169" width="47" height="47" fill="#E3E2E1"/>
<rect x="279" y="169" width="47" height="47" fill="#E3E2E1"/>
<rect x="334" y="169" width="47" height="47" fill="#E3E2E1"/>
<rect x="114" y="169" width="47" height="47" fill="#E3E2E1"/>
<rect x="169" y="169" width="47" height="47" fill="#E3E2E1"/>
<rect x="389" y="169" width="47" height="47" fill="#E3E2E1"/>
<rect x="444" y="224" width="47" height="47" fill="#E3E2E1"/>
<rect x="499" y="224" width="47" height="47" fill="#E3E2E1"/>
<rect x="444" y="169" width="47" height="47" fill="#E3E2E1"/>
<rect x="444" y="389" width="47" height="47" fill="#E3E2E1"/>
<rect x="444" y="334" width="47" height="47" fill="#E3E2E1"/>
<rect x="224" y="114" width="47" height="47" fill="#E3E2E1"/>
<rect x="279" y="114" width="47" height="47" fill="#E3E2E1"/>
<rect x="334" y="114" width="47" height="47" fill="#E3E2E1"/>
<rect x="334" y="59" width="47" height="47" fill="#E3E2E1"/>
<rect x="114" y="114" width="47" height="47" fill="#E3E2E1"/>
<rect x="169" y="114" width="47" height="47" fill="#E3E2E1"/>
<rect x="224" y="59" width="47" height="47" fill="#E3E2E1"/>
<rect x="169" y="59" width="47" height="47" fill="#E3E2E1"/>
<rect x="389" y="114" width="47" height="47" fill="#E3E2E1"/>
<rect x="389" y="4" width="47" height="47" fill="#E3E2E1"/>
<rect x="389" y="499" width="47" height="47" fill="#E3E2E1"/>
<rect x="169" y="499" width="47" height="47" fill="#E3E2E1"/>
</svg>
