<svg width="46" height="46" viewBox="0 0 46 46" fill="none" xmlns="http://www.w3.org/2000/svg">
<g clip-path="url(#clip0_602_923)">
<mask id="mask0_602_923" style="mask-type:luminance" maskUnits="userSpaceOnUse" x="0" y="0" width="46" height="46">
<path d="M46 0H0V46H46V0Z" fill="white"/>
</mask>
<g mask="url(#mask0_602_923)">
<path d="M15.3338 20.4445H10.2227V25.5556H15.3338V20.4445Z" fill="#1A1A1A"/>
<path d="M15.3338 15.3334H10.2227V20.4445H15.3338V15.3334Z" fill="#1A1A1A"/>
<path d="M35.7771 15.3334H30.666V20.4445H35.7771V15.3334Z" fill="#1A1A1A"/>
<path d="M15.3338 25.5555H10.2227V30.6667H15.3338V25.5555Z" fill="#1A1A1A"/>
<path d="M20.4451 30.6666H15.334V35.7777H20.4451V30.6666Z" fill="#1A1A1A"/>
<path d="M25.5564 30.6666H20.4453V35.7777H25.5564V30.6666Z" fill="#1A1A1A"/>
<path d="M30.6658 30.6666H25.5547V35.7777H30.6658V30.6666Z" fill="#1A1A1A"/>
<path d="M20.4451 10.2222H15.334V15.3333H20.4451V10.2222Z" fill="#1A1A1A"/>
<path d="M25.5564 10.2222H20.4453V15.3333H25.5564V10.2222Z" fill="#1A1A1A"/>
<path d="M30.6658 10.2222H25.5547V15.3333H30.6658V10.2222Z" fill="#1A1A1A"/>
<path d="M35.7771 25.5555H30.666V30.6667H35.7771V25.5555Z" fill="#1A1A1A"/>
<path d="M35.7771 20.4445H30.666V25.5556H35.7771V20.4445Z" fill="#1A1A1A"/>
<path d="M5.11111 20.4445H0V25.5556H5.11111V20.4445Z" fill="#1A1A1A"/>
<path d="M25.5564 0H20.4453V5.11111H25.5564V0Z" fill="#1A1A1A"/>
<path d="M45.9998 20.4445H40.8887V25.5556H45.9998V20.4445Z" fill="#1A1A1A"/>
<path d="M25.5564 40.8889H20.4453V46H25.5564V40.8889Z" fill="#1A1A1A"/>
<path d="M10.2224 35.7778H5.11133V40.8889H10.2224V35.7778Z" fill="#1A1A1A"/>
<path d="M10.2224 5.11108H5.11133V10.2222H10.2224V5.11108Z" fill="#1A1A1A"/>
<path d="M40.8885 5.11108H35.7773V10.2222H40.8885V5.11108Z" fill="#1A1A1A"/>
<path d="M40.8885 35.7778H35.7773V40.8889H40.8885V35.7778Z" fill="#1A1A1A"/>
</g>
</g>
<defs>
<clipPath id="clip0_602_923">
<rect width="46" height="46" fill="white"/>
</clipPath>
</defs>
</svg>
